<?xml version="1.0" encoding="UTF-8"?>
<svg version="1.1" xmlns="http://www.w3.org/2000/svg" width="512" height="512">
<path d="M0 0 C16.81316215 13.21201198 27.57637671 30.63174952 30.87109375 51.83203125 C32.82590404 73.728473 28.21432706 94.31216886 14.49609375 111.76953125 C0.84876871 127.30004765 -16.75514773 138.26077233 -37.73828125 140.05517578 C-60.18420818 141.02252823 -80.45451303 136.29712304 -97.67578125 121.1640625 C-113.51948374 106.1024536 -122.76732909 87.84380573 -123.46582031 65.79174805 C-123.77696277 44.67594528 -117.58456123 25.49135777 -103.11328125 9.8046875 C-75.57060132 -18.42381614 -32.20551495 -22.31468264 0 0 Z M-69.12890625 42.83203125 C-74.89834521 50.38615 -77.21993817 58.35800721 -76.12890625 67.83203125 C-74.35460486 75.46046475 -71.20393171 81.77715158 -65.12890625 86.83203125 C-56.30070252 92.21213717 -47.69124992 94.62795264 -37.3984375 92.18359375 C-29.11499084 89.17843636 -23.21087446 84.46018894 -19.19140625 76.58203125 C-15.41232545 68.3321057 -14.85709842 60.78447468 -17.75390625 52.08203125 C-21.09446026 43.88248958 -26.24712498 38.780634 -34.12890625 34.83203125 C-46.33695913 30.08445513 -60.35941889 32.87190853 -69.12890625 42.83203125 Z " fill="#F76B82" transform="translate(173.12890625,192.16796875)"/>
<path d="M0 0 C15.66048077 12.95815248 26.16835927 30.92253612 28.76904297 51.17285156 C30.74103955 72.67063486 25.84532345 92.99270436 12.39404297 110.11035156 C-1.25328207 125.64086796 -18.85719851 136.60159265 -39.84033203 138.39599609 C-62.28625896 139.36334854 -82.55656382 134.63794336 -99.77783203 119.50488281 C-114.45005927 105.55692157 -124.6261179 87.82804665 -125.56689453 67.20019531 C-125.97770241 44.25523597 -120.36664131 24.1417037 -104.23095703 7.17285156 C-94.12698956 -3.19258642 -82.03308699 -9.72471029 -68.23095703 -13.82714844 C-67.43818359 -14.07335937 -66.64541016 -14.31957031 -65.82861328 -14.57324219 C-43.3953434 -20.28998056 -18.03427728 -14.06309299 0 0 Z M-71.23095703 41.17285156 C-77.35077832 49.33261328 -79.24504089 57.00633995 -78.23095703 67.17285156 C-76.50179015 74.37943928 -72.88714388 80.37042877 -67.23095703 85.17285156 C-58.41222404 90.56058813 -49.78531334 92.96687609 -39.50048828 90.52441406 C-31.2498993 87.53117713 -25.33027678 82.81678187 -21.29345703 74.98535156 C-17.50613271 66.83297547 -17.00324427 59.0790008 -19.85595703 50.48535156 C-23.18076668 42.24307869 -28.31815364 37.13699573 -36.23095703 33.17285156 C-48.42870168 28.4292842 -62.4747477 31.20494746 -71.23095703 41.17285156 Z " fill="#F76B82" transform="translate(433.23095703125,193.8271484375)"/>
<path d="M0 0 C0.77220179 -0.00465992 1.54440358 -0.00931984 2.34000543 -0.01412097 C4.92493425 -0.02606221 7.50933663 -0.01667901 10.09426975 -0.00736332 C11.96727221 -0.01153661 13.84027215 -0.0170141 15.71326739 -0.02368313 C20.85837187 -0.03815694 26.00331644 -0.03388694 31.14842975 -0.02651632 C36.69794753 -0.02179177 42.24743036 -0.03428816 47.79693699 -0.04453373 C58.66801275 -0.06174085 69.53903076 -0.0625578 80.41011661 -0.05732083 C89.24474673 -0.05328158 98.07935976 -0.05471976 106.91398907 -0.06006908 C108.17074486 -0.06081751 109.42750065 -0.06156593 110.72233995 -0.06233703 C113.27532136 -0.06386848 115.82830278 -0.06540683 118.38128418 -0.066952 C135.52549003 -0.07678257 152.66968935 -0.08094257 169.81389618 -0.07332611 C170.48425088 -0.07302894 171.15460558 -0.07273176 171.84527405 -0.07242559 C177.28899798 -0.06997666 182.73272183 -0.06736507 188.17644568 -0.06474145 C209.41166206 -0.0546385 230.64679938 -0.06299548 251.88200474 -0.086236 C275.7419286 -0.11230687 299.60180518 -0.12510753 323.46174818 -0.11804825 C336.09448804 -0.11455229 348.72716296 -0.11681303 361.35989285 -0.13429928 C372.1134302 -0.14899956 382.86685689 -0.1496851 393.62039202 -0.13222837 C399.10794815 -0.12369827 404.5953064 -0.12161793 410.08285236 -0.13687992 C415.10578622 -0.15067693 420.12835174 -0.14602812 425.15126402 -0.12664068 C426.96881522 -0.12286504 428.78639558 -0.12584747 430.60392093 -0.13625234 C433.07492778 -0.14939287 435.54465784 -0.13786603 438.01560974 -0.12025452 C438.72096553 -0.12990503 439.42632132 -0.13955554 440.15305153 -0.14949849 C446.5064508 -0.0565456 451.55333332 2.21378065 456.31291294 6.31000423 C456.85174107 6.95195736 457.39056919 7.59391048 457.94572544 8.25531673 C458.50002232 8.89211361 459.05431919 9.52891048 459.62541294 10.18500423 C463.74842101 16.44751919 463.35577217 22.98671446 463.33142185 30.20938778 C463.3352474 31.4094342 463.33907295 32.60948061 463.34301442 33.84589207 C463.35154005 37.16902973 463.3511137 40.49194581 463.34683383 43.81507707 C463.34436585 47.40208202 463.35338167 50.98906104 463.36087132 54.57605648 C463.37361849 61.60045023 463.37541197 68.62480576 463.37307105 75.64920913 C463.3712877 81.35933776 463.3730379 87.06945478 463.37729549 92.77958202 C463.37789068 93.59241551 463.37848587 94.40524899 463.3790991 95.24271379 C463.38031086 96.89401673 463.38152499 98.54531968 463.38274147 100.19662262 C463.39361715 115.68161423 463.39145443 131.16658406 463.38535663 146.65157689 C463.38018784 160.81397785 463.39144186 174.97631002 463.41045485 189.13869737 C463.42983263 203.68445209 463.43808933 218.23017426 463.4343316 232.77594197 C463.43241941 240.94073985 463.43490877 249.10547918 463.44904613 257.27026653 C463.46096017 264.22130995 463.46236461 271.1722588 463.45025597 278.12330352 C463.44436732 281.66861429 463.4432673 285.21375207 463.45525837 288.75905132 C463.46811566 292.60521271 463.45765224 296.45111203 463.44494724 300.2972784 C463.45232153 301.41382175 463.45969581 302.5303651 463.46729356 303.6807431 C463.41783824 310.79273177 462.74648657 316.63822505 458.49260044 322.58734798 C457.66502232 323.38205502 457.66502232 323.38205502 456.82072544 324.19281673 C456.27931919 324.73551205 455.73791294 325.27820736 455.18010044 325.83734798 C449.77613877 329.79024588 444.72817105 330.82334254 438.14145088 330.76063347 C437.36924909 330.76529339 436.5970473 330.76995331 435.80144545 330.77475443 C433.21651663 330.78669568 430.63211426 330.77731248 428.04718113 330.76799679 C426.17417867 330.77217008 424.30117873 330.77764757 422.4281835 330.7843166 C417.28307901 330.79879041 412.13813445 330.79452041 406.99302113 330.78714979 C401.44350335 330.78242524 395.89402052 330.79492163 390.34451389 330.8051672 C379.47343813 330.82237432 368.60242012 330.82319126 357.73133428 330.81795429 C348.89670415 330.81391505 340.06209112 330.81535323 331.22746181 330.82070255 C329.97070602 330.82145097 328.71395023 330.8221994 327.41911094 330.8229705 C324.86612952 330.82450195 322.31314811 330.8260403 319.7601667 330.82758547 C302.61596085 330.83741604 285.47176153 330.84157603 268.3275547 330.83395958 C267.6572 330.83366241 266.98684531 330.83336523 266.29617683 330.83305905 C260.8524529 330.83061013 255.40872905 330.82799854 249.96500521 330.82537492 C228.72978882 330.81527197 207.4946515 330.82362895 186.25944614 330.84686947 C162.39952228 330.87294034 138.5396457 330.885741 114.6797027 330.87868172 C102.04696284 330.87518576 89.41428792 330.87744649 76.78155804 330.89493275 C66.02802068 330.90963303 55.274594 330.91031857 44.52105886 330.89286184 C39.03350274 330.88433174 33.54614448 330.8822514 28.05859852 330.89751339 C23.03566466 330.9113104 18.01309914 330.90666159 12.99018686 330.88727415 C11.17263566 330.88349851 9.3550553 330.88648094 7.53752995 330.8968858 C5.0665231 330.91002634 2.59679304 330.8984995 0.12584114 330.88088799 C-0.57951465 330.8905385 -1.28487044 330.90018901 -2.01160064 330.91013196 C-8.36499992 330.81717906 -13.41188243 328.54685281 -18.17146206 324.45062923 C-18.71029018 323.80867611 -19.24911831 323.16672298 -19.80427456 322.50531673 C-20.35857143 321.86851986 -20.91286831 321.23172298 -21.48396206 320.57562923 C-25.60697013 314.31311427 -25.21432129 307.77391901 -25.18997097 300.55124569 C-25.19379652 299.35119927 -25.19762206 298.15115286 -25.20156354 296.9147414 C-25.21008917 293.59160374 -25.20966281 290.26868766 -25.20538294 286.9455564 C-25.20291497 283.35855145 -25.21193079 279.77157243 -25.21942043 276.18457699 C-25.23216761 269.16018324 -25.23396109 262.13582771 -25.23162017 255.11142434 C-25.22983682 249.40129571 -25.23158702 243.69117869 -25.23584461 237.98105145 C-25.2367374 236.76180122 -25.2367374 236.76180122 -25.23764822 235.51791968 C-25.23885997 233.86661673 -25.24007411 232.21531379 -25.24129059 230.56401084 C-25.25216627 215.07901924 -25.25000355 199.59404941 -25.24390575 184.10905658 C-25.23873695 169.94665562 -25.24999098 155.78432345 -25.26900396 141.6219361 C-25.28838175 127.07618138 -25.29663844 112.53045921 -25.29288071 97.9846915 C-25.29096853 89.81989362 -25.29345789 81.65515428 -25.30759525 73.49036694 C-25.31950929 66.53932351 -25.32091373 59.58837467 -25.30880509 52.63732995 C-25.30291644 49.09201918 -25.30181642 45.5468814 -25.31380749 42.00158215 C-25.32666478 38.15542075 -25.31620136 34.30952144 -25.30349636 30.46335506 C-25.31087065 29.34681172 -25.31824493 28.23026837 -25.32584268 27.07989037 C-25.27638735 19.9679017 -24.60503569 14.12240842 -20.35114956 8.17328548 C-19.79943081 7.6434808 -19.24771206 7.11367611 -18.67927456 6.56781673 C-18.13786831 6.02512142 -17.59646206 5.48242611 -17.03864956 4.92328548 C-11.63468788 0.97038759 -6.58672016 -0.06270907 0 0 Z M-15.33502865 15.3878088 C-17.82792183 20.41318999 -17.48130766 25.76971786 -17.43720913 31.26044369 C-17.44344909 32.45388299 -17.44968905 33.64732229 -17.45611811 34.87692642 C-17.46928602 38.17717964 -17.46458366 41.47651864 -17.45217323 44.77671576 C-17.44310894 48.34052697 -17.45709927 51.90425931 -17.46809292 55.46805477 C-17.48586809 62.44456302 -17.48204268 69.42089901 -17.47044235 76.39741397 C-17.46140434 82.06796827 -17.46018562 87.73847434 -17.46453762 93.40903378 C-17.46515055 94.21646977 -17.46576348 95.02390576 -17.46639499 95.85580951 C-17.46767391 97.49616267 -17.46897076 99.13651581 -17.47028536 100.77686894 C-17.48168822 116.15408702 -17.46858208 131.53120967 -17.44708389 146.9084121 C-17.42921316 160.09929007 -17.43231735 173.29002724 -17.45075893 186.48090267 C-17.47217086 201.8035476 -17.48058961 217.12610891 -17.46830988 232.44876671 C-17.4670357 234.08304436 -17.46577822 235.71732202 -17.46453762 237.35159969 C-17.46392052 238.15566999 -17.46330342 238.95974029 -17.46266761 239.78817636 C-17.45921568 245.45112257 -17.46503968 251.1140157 -17.47445583 256.7769537 C-17.48568078 263.67936288 -17.48262544 270.58159014 -17.46133286 277.48397851 C-17.45082898 281.00490947 -17.44668898 284.52553724 -17.45992947 288.04646587 C-17.47407012 291.86454485 -17.45717207 295.68212866 -17.43720913 299.50018978 C-17.44613202 300.61118196 -17.4550549 301.72217413 -17.46424818 302.86683273 C-17.39954545 309.23583022 -16.96553904 313.33448373 -12.92927456 318.38031673 C-7.90719386 321.8091987 -4.17512485 322.96531178 1.94032383 322.8836813 C3.08894567 322.89240194 3.08894567 322.89240194 4.26077199 322.90129876 C6.8238848 322.915884 9.38603776 322.90202086 11.94914341 322.8882513 C13.80636109 322.89286081 15.66357512 322.89921406 17.52078152 322.90716028 C22.62225926 322.92386989 27.72343797 322.91559974 32.82491684 322.90321541 C38.32738561 322.89417397 43.82980257 322.90813016 49.33226109 322.91913509 C60.11077774 322.93693454 70.88918306 322.93307395 81.66770411 322.92148453 C90.42654523 322.91245611 99.18535512 322.91122365 107.94419956 322.9155798 C109.19014263 322.91619273 110.4360857 322.91680566 111.71978462 322.91743717 C114.25078377 322.91871605 116.78178291 322.9200129 119.31278205 322.92132753 C142.37676645 322.93241216 165.44069824 322.92091112 188.50466987 322.89995714 C209.55862198 322.88097475 230.61247731 322.88267327 251.66642857 322.90180111 C275.32161889 322.92322039 298.9767666 322.93163883 322.6319685 322.91935205 C325.15372943 322.91807784 327.67549037 322.91682036 330.19725132 322.9155798 C332.0584509 322.91465414 332.0584509 322.91465414 333.95725048 322.91370979 C342.70698239 322.91025408 351.45667999 322.91609001 360.20640659 322.92549801 C370.86738626 322.93670891 381.52824809 322.933697 392.18921423 322.91237503 C397.63006196 322.90185247 403.07071315 322.89776346 408.51155949 322.91097164 C413.49065554 322.9228762 418.46937253 322.9163648 423.44843411 322.89506143 C425.25116006 322.89058718 427.05391792 322.89288006 428.85662341 322.90256459 C431.30524792 322.91471172 433.75257065 322.90227139 436.20112705 322.8836813 C437.25347518 322.89772829 437.25347518 322.89772829 438.32708287 322.91205907 C443.71696752 322.83015204 446.72327204 321.34858933 451.07072544 318.38031673 C455.81982218 312.44335468 455.63806854 306.89716962 455.57866001 299.50018978 C455.58489997 298.30675048 455.59113994 297.11331118 455.59756899 295.88370705 C455.6107369 292.58345383 455.60603454 289.28411483 455.59362411 285.98391771 C455.58455982 282.4201065 455.59855015 278.85637416 455.6095438 275.2925787 C455.62731897 268.31607045 455.62349356 261.33973446 455.61189324 254.3632195 C455.60285522 248.6926652 455.6016365 243.02215913 455.6059885 237.35159969 C455.6069079 236.1404457 455.6069079 236.1404457 455.60784587 234.90482396 C455.60912479 233.2644708 455.61042164 231.62411766 455.61173624 229.98376453 C455.6231391 214.60654645 455.61003296 199.2294238 455.58853477 183.85222137 C455.57066404 170.6613434 455.57376823 157.47060623 455.59220982 144.2797308 C455.61362174 128.95708587 455.62204049 113.63452456 455.60976076 98.31186676 C455.60848658 96.67758911 455.6072291 95.04331145 455.6059885 93.40903378 C455.6053714 92.60496348 455.6047543 91.80089318 455.6041185 90.97245711 C455.60066656 85.30951089 455.60649057 79.64661777 455.61590672 73.98367977 C455.62713166 67.08127059 455.62407632 60.17904333 455.60278374 53.27665496 C455.59227986 49.755724 455.58813986 46.23509623 455.60138035 42.71416759 C455.615521 38.89608862 455.59862295 35.07850481 455.57866001 31.26044369 C455.5875829 30.14945151 455.59650578 29.03845934 455.60569906 27.89380074 C455.54099634 21.52480325 455.10698992 17.42614974 451.07072544 12.38031673 C446.04864474 8.95143477 442.31657574 7.79532169 436.20112705 7.87695217 C435.43537916 7.87113841 434.66963127 7.86532465 433.88067889 7.85933471 C431.31756608 7.84474947 428.75541312 7.85861261 426.19230747 7.87238216 C424.33508979 7.86777266 422.47787576 7.86141941 420.62066936 7.85347319 C415.51919162 7.83676358 410.41801291 7.84503373 405.31653404 7.85741806 C399.81406527 7.8664595 394.31164831 7.85250331 388.8091898 7.84149837 C378.03067314 7.82369892 367.25226782 7.82755952 356.47374678 7.83914894 C347.71490565 7.84817736 338.95609576 7.84940982 330.19725132 7.84505367 C328.95130825 7.84444074 327.70536518 7.84382781 326.42166626 7.8431963 C323.89066711 7.84191742 321.35966797 7.84062057 318.82866883 7.83930594 C295.76468443 7.82822131 272.70075264 7.83972235 249.63678101 7.86067633 C228.5828289 7.87965872 207.52897357 7.8779602 186.47502232 7.85883236 C162.81983199 7.83741308 139.16468428 7.82899464 115.50948238 7.84128141 C112.98772145 7.84255563 110.46596051 7.84381311 107.94419956 7.84505367 C106.70339984 7.84567077 105.46260012 7.84628788 104.18420041 7.84692368 C95.4344685 7.85037939 86.68477089 7.84454345 77.93504429 7.83513546 C67.27406463 7.82392456 56.61320279 7.82693647 45.95223665 7.84825844 C40.51138892 7.858781 35.07073774 7.86287001 29.6298914 7.84966183 C24.65079534 7.83775727 19.67207835 7.84426867 14.69301677 7.86557204 C12.89029082 7.87004629 11.08753296 7.86775341 9.28482747 7.85806888 C6.83620296 7.84592175 4.38888023 7.85836208 1.94032383 7.87695217 C1.23875841 7.86758751 0.53719299 7.85822284 -0.18563199 7.8485744 C-6.78616746 7.94887901 -11.20145214 10.22032364 -15.33502865 15.3878088 Z " fill="#424751" transform="translate(36.929274559020996,90.61968326568604)"/>
<path d="M0 0 C1.02342499 -0.00852997 2.04684998 -0.01705994 3.10128784 -0.02584839 C4.22343689 -0.02494202 5.34558594 -0.02403564 6.5017395 -0.02310181 C8.27525284 -0.03317764 8.27525284 -0.03317764 10.08459473 -0.04345703 C13.32849094 -0.05921583 16.5722336 -0.06581301 19.81616354 -0.0670886 C21.84326494 -0.06851006 23.8703395 -0.07277955 25.89743423 -0.07808304 C32.97063145 -0.09658854 40.04375326 -0.10475307 47.11697388 -0.10317993 C53.70800979 -0.10197863 60.29871817 -0.12307705 66.88967121 -0.15466726 C72.55007589 -0.18082957 78.21037361 -0.19154724 83.87083828 -0.19026911 C87.25082035 -0.18975942 90.63051141 -0.1954458 94.0104332 -0.21662521 C97.78125062 -0.2361806 101.55122148 -0.23048727 105.322052 -0.21841431 C106.99920288 -0.23527283 106.99920288 -0.23527283 108.7102356 -0.25247192 C116.27965386 -0.19076572 116.27965386 -0.19076572 120.22393799 2.18206787 C124.65177375 7.26287762 123.47656892 14.89652906 123.04129028 21.26742554 C121.85379028 24.95492554 121.85379028 24.95492554 120.04129028 27.26742554 C116.59975625 28.95692089 113.81339094 29.51899708 110.00065613 29.52812195 C109.00958359 29.53520676 108.01851105 29.54229156 106.99740601 29.54959106 C105.38342926 29.54587494 105.38342926 29.54587494 103.73684692 29.54208374 C102.02382637 29.54975014 102.02382637 29.54975014 100.27619934 29.55757141 C96.50122843 29.57147128 92.72643999 29.57051036 88.95144653 29.56820679 C86.32737663 29.57209336 83.70330735 29.57642795 81.07923889 29.58119202 C75.57902407 29.58939944 70.07886062 29.58850058 64.5786438 29.58309937 C58.22848419 29.57705923 51.87854614 29.58937377 45.52842432 29.61066943 C39.41003741 29.63043053 33.29175387 29.63345674 27.17333794 29.62993431 C24.57420773 29.63044789 21.97507402 29.63569239 19.37596321 29.64574623 C15.74217769 29.6580776 12.10890543 29.65133826 8.47512817 29.63973999 C7.40116791 29.64738373 6.32720764 29.65502747 5.22070312 29.66290283 C-0.22890789 29.62444266 -4.30059723 29.44611715 -8.95870972 26.26742554 C-11.27315149 22.42558559 -11.25693233 18.68389806 -11.27120972 14.26742554 C-11.28796753 13.07117554 -11.30472534 11.87492554 -11.32199097 10.64242554 C-10.92899615 6.99137696 -10.1687525 5.16584231 -7.95870972 2.26742554 C-4.69736453 0.09319541 -3.77378098 0.01420529 0 0 Z M106.04129028 8.26742554 C105.71515747 8.87070679 105.38902466 9.47398804 105.05300903 10.09555054 C104.61601685 10.89476929 104.17902466 11.69398804 103.72879028 12.51742554 C103.29953247 13.30633179 102.87027466 14.09523804 102.42800903 14.90805054 C101.10166888 17.16469688 99.65244804 19.20741151 98.04129028 21.26742554 C100.68719042 21.29427233 103.33282124 21.3141891 105.97879028 21.32992554 C106.73353638 21.33830444 107.48828247 21.34668335 108.26589966 21.35531616 C110.19123342 21.36394995 112.11664609 21.31966886 114.04129028 21.26742554 C115.3199941 20.21142176 115.3199941 20.21142176 115.17410278 17.79867554 C115.17152466 16.79836304 115.16894653 15.79805054 115.16629028 14.76742554 C115.16886841 13.76711304 115.17144653 12.76680054 115.17410278 11.73617554 C115.3199941 9.32342931 115.3199941 9.32342931 114.04129028 8.26742554 C111.37070177 8.12627392 108.71696791 8.22495446 106.04129028 8.26742554 Z " fill="#424852" transform="translate(328.9587097167969,113.73257446289063)"/>
<path d="M0 0 C1.53719948 -0.01485695 1.53719948 -0.01485695 3.10545349 -0.03001404 C4.22400726 -0.02551239 5.34256104 -0.02101074 6.49501038 -0.01637268 C7.67749863 -0.02323593 8.85998688 -0.03009918 10.07830811 -0.03717041 C13.31808642 -0.05233482 16.55750412 -0.05393255 19.79730296 -0.04822803 C22.50357466 -0.04513673 25.20979431 -0.05122798 27.9160586 -0.05726677 C34.30146941 -0.07131227 40.68674644 -0.06975074 47.07215881 -0.05836487 C53.655848 -0.04688473 60.23912979 -0.06095708 66.82276529 -0.08776134 C72.47895739 -0.10992597 78.13502167 -0.11655401 83.7912541 -0.11068493 C87.16784995 -0.10731576 90.54418468 -0.10972722 93.92074394 -0.12693596 C97.6866945 -0.14178712 101.45174455 -0.13121059 105.21766663 -0.11402893 C106.33419617 -0.1236969 107.45072571 -0.13336487 108.60108948 -0.14332581 C116.13228546 -0.07125359 116.13228546 -0.07125359 120.08999634 2.23153687 C123.27782813 5.98537291 123.11018628 9.43870755 123.17103577 14.20018005 C123.20970764 16.00422302 123.20970764 16.00422302 123.24916077 17.8447113 C122.88397089 21.78789243 122.1259403 24.1042896 119.92103577 27.38768005 C116.49343473 29.10492758 113.6892143 29.63926098 109.88040161 29.64837646 C108.88932907 29.65546127 107.89825653 29.66254608 106.87715149 29.66984558 C105.26317474 29.66612946 105.26317474 29.66612946 103.61659241 29.66233826 C101.90357185 29.67000465 101.90357185 29.67000465 100.15594482 29.67782593 C96.38097391 29.6917258 92.60618548 29.69076488 88.83119202 29.6884613 C86.20712211 29.69234787 83.58305283 29.69668246 80.95898438 29.70144653 C75.45876955 29.70965396 69.95860611 29.7087551 64.45838928 29.70335388 C58.10822967 29.69731375 51.75829162 29.70962829 45.40816981 29.73092395 C39.28978289 29.75068505 33.17149935 29.75371125 27.05308342 29.75018883 C24.45395322 29.7507024 21.8548195 29.7559469 19.25570869 29.76600075 C15.62192317 29.77833212 11.98865092 29.77159277 8.35487366 29.75999451 C7.28091339 29.76763824 6.20695312 29.77528198 5.10044861 29.78315735 C-0.34813241 29.74470444 -4.42306957 29.56836737 -9.07896423 26.38768005 C-11.30289878 22.65556002 -11.34897683 19.17037559 -11.32896423 14.88768005 C-11.33412048 13.78424255 -11.33927673 12.68080505 -11.34458923 11.54393005 C-10.9997732 7.44670424 -10.40459729 4.60681951 -7.31925106 1.76933193 C-4.64744362 0.12154839 -3.12082489 0.00852544 0 0 Z M103.92103577 8.38768005 C103.58330139 9.07475037 103.24556702 9.76182068 102.89759827 10.4697113 C102.22857483 11.82129333 102.22857483 11.82129333 101.54603577 13.20018005 C101.10517639 14.09350037 100.66431702 14.98682068 100.21009827 15.9072113 C98.92103577 18.38768005 98.92103577 18.38768005 96.92103577 21.38768005 C99.73359858 21.41452318 102.54590818 21.43444193 105.35853577 21.45018005 C106.56219788 21.46274841 106.56219788 21.46274841 107.79017639 21.47557068 C109.83398798 21.48419436 111.87787478 21.43996155 113.92103577 21.38768005 C115.19973959 20.33167628 115.19973959 20.33167628 115.05384827 17.91893005 C115.05127014 16.91861755 115.04869202 15.91830505 115.04603577 14.88768005 C115.04861389 13.88736755 115.05119202 12.88705505 115.05384827 11.85643005 C115.19973959 9.44368383 115.19973959 9.44368383 113.92103577 8.38768005 C112.23494611 8.31562494 110.54602917 8.30381938 108.85853577 8.32518005 C107.9394342 8.33420349 107.02033264 8.34322693 106.07337952 8.3525238 C105.36310608 8.36412537 104.65283264 8.37572693 103.92103577 8.38768005 Z " fill="#424751" transform="translate(71.07896423339844,113.61231994628906)"/>
<path d="M0 0 C1.50197182 -0.01429802 1.50197182 -0.01429802 3.0342865 -0.02888489 C4.10522049 -0.02797348 5.17615448 -0.02706207 6.27954102 -0.02612305 C7.39023453 -0.03040817 8.50092804 -0.0346933 9.64527893 -0.03910828 C11.99121418 -0.04484421 14.33716722 -0.04535728 16.68310547 -0.04101562 C20.26699233 -0.0378563 23.85005306 -0.06132282 27.43383789 -0.08666992 C29.71573789 -0.08894308 31.99764011 -0.08964633 34.27954102 -0.08862305 C35.88290565 -0.10243767 35.88290565 -0.10243767 37.5186615 -0.11653137 C44.2316178 -0.07490371 48.8768035 0.55249565 54.00610352 5.25512695 C54.94776367 6.34760742 54.94776367 6.34760742 55.90844727 7.4621582 C56.93518555 8.64358398 56.93518555 8.64358398 57.98266602 9.84887695 C59.70706095 12.09384394 60.93987798 14.26231384 62.22094727 16.7746582 C63.75349769 19.4473413 64.36119271 20.1367991 67.37329102 20.9934082 C69.89271088 21.24782367 72.3164833 21.35324349 74.84594727 21.2746582 C75.34094727 24.2446582 75.34094727 24.2446582 75.84594727 27.2746582 C72.61803172 29.4266019 71.56193917 29.47552263 67.84594727 29.2746582 C67.82016602 29.85473633 67.79438477 30.43481445 67.76782227 31.0324707 C67.27024943 37.88540572 65.49769495 41.88161761 60.28344727 46.5871582 C56.66860707 49.08973987 53.90341801 49.40887671 49.61523438 49.4675293 C48.0122776 49.49162369 48.0122776 49.49162369 46.37693787 49.51620483 C41.47476911 49.56082532 36.57273488 49.60174755 31.67041016 49.62475586 C29.09154207 49.64127772 26.51271907 49.66851724 23.93408203 49.70678711 C20.20524461 49.76181647 16.47748097 49.78347431 12.74829102 49.7980957 C11.60625717 49.82076508 10.46422333 49.84343445 9.2875824 49.86679077 C0.59634467 49.84408033 -6.05793003 47.87312114 -12.66186523 42.0715332 C-13.46237305 41.05833008 -13.46237305 41.05833008 -14.27905273 40.0246582 C-14.83850586 39.33887695 -15.39795898 38.6530957 -15.97436523 37.9465332 C-17.15405273 36.2746582 -17.15405273 36.2746582 -17.15405273 35.2746582 C-16.29627731 35.25919701 -16.29627731 35.25919701 -15.4211731 35.24342346 C-9.48419487 35.13547505 -3.54737202 35.02086778 2.3894043 34.90234375 C4.60681923 34.85895743 6.82426838 34.81728512 9.04174805 34.77734375 C12.22398199 34.71973066 15.40604311 34.65601056 18.58813477 34.59106445 C19.58400604 34.57435196 20.57987732 34.55763947 21.60592651 34.54042053 C22.52673004 34.52047531 23.44753357 34.50053009 24.39624023 34.47998047 C25.20898407 34.46443619 26.02172791 34.44889191 26.85910034 34.43287659 C28.92032993 34.39363406 28.92032993 34.39363406 30.84594727 33.2746582 C30.84594727 32.2846582 30.84594727 31.2946582 30.84594727 30.2746582 C30.15103683 30.26657135 29.4561264 30.2584845 28.74015808 30.25015259 C22.19225183 30.17222163 15.64454502 30.08493568 9.0969038 29.98713112 C5.73066011 29.93717858 2.36444764 29.89084873 -1.00195312 29.8527832 C-4.87185254 29.80722985 -8.74139298 29.74921879 -12.61108398 29.6887207 C-14.42525566 29.67139389 -14.42525566 29.67139389 -16.27607727 29.65371704 C-17.39701279 29.63384735 -18.5179483 29.61397766 -19.67285156 29.59350586 C-20.66102371 29.58018219 -21.64919586 29.56685852 -22.66731262 29.5531311 C-25.15405273 29.2746582 -25.15405273 29.2746582 -28.15405273 27.2746582 C-27.82405273 25.2946582 -27.49405273 23.3146582 -27.15405273 21.2746582 C-24.84405273 21.2746582 -22.53405273 21.2746582 -20.15405273 21.2746582 C-20.12827148 20.69458008 -20.10249023 20.11450195 -20.07592773 19.5168457 C-19.58253644 12.72150194 -17.83074777 8.74545362 -12.71655273 4.0246582 C-8.54887979 1.17844254 -5.03802188 0.02647342 0 0 Z " fill="#D3E0E7" transform="translate(232.154052734375,352.725341796875)"/>
<path d="M0 0 C1.50197182 -0.01429802 1.50197182 -0.01429802 3.0342865 -0.02888489 C4.10522049 -0.02797348 5.17615448 -0.02706207 6.27954102 -0.02612305 C7.39023453 -0.03040817 8.50092804 -0.0346933 9.64527893 -0.03910828 C11.99121418 -0.04484421 14.33716722 -0.04535728 16.68310547 -0.04101562 C20.26699233 -0.0378563 23.85005306 -0.06132282 27.43383789 -0.08666992 C29.71573789 -0.08894308 31.99764011 -0.08964633 34.27954102 -0.08862305 C35.88290565 -0.10243767 35.88290565 -0.10243767 37.5186615 -0.11653137 C44.22886059 -0.07492081 48.84463974 0.57185324 54.00610352 5.2199707 C54.63387695 5.93926758 55.26165039 6.65856445 55.90844727 7.3996582 C56.53879883 8.10348633 57.16915039 8.80731445 57.81860352 9.5324707 C60.53033724 13.20036488 62.63070486 17.28722186 64.84594727 21.2746582 C36.79594727 21.2746582 8.74594727 21.2746582 -20.15405273 21.2746582 C-19.19008716 12.59896804 -18.7961558 9.63659949 -12.71655273 4.0246582 C-8.54887979 1.17844254 -5.03802188 0.02647342 0 0 Z " fill="#D3E1E8" transform="translate(232.154052734375,352.725341796875)"/>
<path d="M0 0 C2.5625 -0.25 2.5625 -0.25 5 0 C6 1 6 1 6.09765625 4.16015625 C6.08605469 5.44792969 6.07445312 6.73570312 6.0625 8.0625 C6.05347656 9.35285156 6.04445312 10.64320313 6.03515625 11.97265625 C6.02355469 12.97167969 6.01195312 13.97070312 6 15 C7.2375 14.95875 8.475 14.9175 9.75 14.875 C15.40616531 14.90497967 15.40616531 14.90497967 18 17 C19.83541304 20.74371253 20.29662098 23.85028176 20.3125 28 C20.32925781 29.010625 20.34601563 30.02125 20.36328125 31.0625 C19.91332588 34.70084876 18.6114817 37.3885183 16 40 C14.31391034 40.07205511 12.62499341 40.08386068 10.9375 40.0625 C10.01839844 40.05347656 9.09929687 40.04445312 8.15234375 40.03515625 C7.44207031 40.02355469 6.73179687 40.01195312 6 40 C6.00222061 41.11277817 6.00444122 42.22555634 6.00672913 43.37205505 C6.02695955 53.8349213 6.04197166 64.29778361 6.05181217 74.76066494 C6.05704125 80.14033762 6.06413935 85.51999458 6.07543945 90.8996582 C6.08626745 96.08674843 6.09227665 101.27382349 6.09487724 106.46092415 C6.09673165 108.4445628 6.10035256 110.42820058 6.10573006 112.41183281 C6.11293932 115.18009136 6.11399099 117.94828638 6.11352539 120.71655273 C6.11712067 121.54517319 6.12071594 122.37379364 6.12442017 123.2275238 C6.11405216 128.88594784 6.11405216 128.88594784 5 130 C2.5625 130.25 2.5625 130.25 0 130 C-2.54875097 126.17687355 -2.26671414 123.10097601 -2.22705078 118.6730957 C-2.22734283 117.82409698 -2.22763489 116.97509827 -2.22793579 116.10037231 C-2.22654163 113.29207159 -2.21097636 110.48403567 -2.1953125 107.67578125 C-2.19158268 105.72950892 -2.18873556 103.78323472 -2.18673706 101.83695984 C-2.17909819 96.71262433 -2.15944748 91.58840207 -2.1373291 86.46411133 C-2.11687617 81.23585543 -2.10773652 76.00758124 -2.09765625 70.77929688 C-2.07620186 60.51948148 -2.04206282 50.25975015 -2 40 C-2.93034561 40.03582436 -2.93034561 40.03582436 -3.87948608 40.07237244 C-4.69188751 40.09094803 -5.50428894 40.10952362 -6.34130859 40.12866211 C-7.55009171 40.16448647 -7.55009171 40.16448647 -8.78329468 40.20103455 C-11 40 -11 40 -13.5390625 37.94140625 C-15.31594977 34.36387653 -15.46870281 31.91986953 -15.375 27.9375 C-15.36210937 26.72964844 -15.34921875 25.52179688 -15.3359375 24.27734375 C-15.0253154 21.24697232 -14.65355565 19.51316581 -13 17 C-9.56760581 14.45748579 -6.13752054 14.84086459 -2 15 C-2.02320313 14.16855469 -2.04640625 13.33710938 -2.0703125 12.48046875 C-2.08835938 11.39378906 -2.10640625 10.30710938 -2.125 9.1875 C-2.14820313 8.10855469 -2.17140625 7.02960938 -2.1953125 5.91796875 C-2 3 -2 3 0 0 Z M-7 23 C-7 25.97 -7 28.94 -7 32 C-0.73 32 5.54 32 12 32 C12 29.03 12 26.06 12 23 C5.73 23 -0.54 23 -7 23 Z " fill="#414851" transform="translate(229,191)"/>
<path d="M0 0 C1.24974609 -0.03738281 2.49949219 -0.07476562 3.78710938 -0.11328125 C4.98787109 -0.12488281 6.18863281 -0.13648438 7.42578125 -0.1484375 C8.52962158 -0.16825684 9.63346191 -0.18807617 10.77075195 -0.20849609 C13.6875 0.375 13.6875 0.375 16.05004883 2.69458008 C18.15289494 6.1368266 18.1568115 8.42926108 18.0625 12.4375 C18.04960937 13.64535156 18.03671875 14.85320312 18.0234375 16.09765625 C17.7128154 19.12802768 17.34105565 20.86183419 15.6875 23.375 C12.23851825 25.9298013 8.83750228 25.43297442 4.6875 25.375 C4.69797363 26.20749268 4.70844727 27.03998535 4.71923828 27.89770508 C4.75334442 30.98949156 4.77841076 34.08118208 4.79736328 37.1730957 C4.81235495 39.16819618 4.83776731 41.16320946 4.86328125 43.15820312 C4.86972656 44.41181641 4.87617188 45.66542969 4.8828125 46.95703125 C4.89328613 48.11436768 4.90375977 49.2717041 4.91455078 50.46411133 C4.6875 53.375 4.6875 53.375 2.6875 56.375 C0.125 56.625 0.125 56.625 -2.3125 56.375 C-3.3125 55.375 -3.3125 55.375 -3.42602539 52.50756836 C-3.42078857 51.25596924 -3.41555176 50.00437012 -3.41015625 48.71484375 C-3.4087413 48.05037735 -3.40732635 47.38591095 -3.40586853 46.7013092 C-3.40025518 44.57166101 -3.38770054 42.44211661 -3.375 40.3125 C-3.36998671 38.87174631 -3.36542351 37.43099097 -3.36132812 35.99023438 C-3.35028145 32.45178898 -3.33300792 28.91340461 -3.3125 25.375 C-4.58351563 25.38917969 -5.85453125 25.40335937 -7.1640625 25.41796875 C-12.70655488 25.47980183 -12.70655488 25.47980183 -15.3125 23.375 C-17.14791304 19.63128747 -17.60912098 16.52471824 -17.625 12.375 C-17.64175781 11.364375 -17.65851563 10.35375 -17.67578125 9.3125 C-16.32756735 -1.5891866 -8.89286641 0.0999709 0 0 Z M-9.3125 8.375 C-9.3125 11.345 -9.3125 14.315 -9.3125 17.375 C-3.0425 17.375 3.2275 17.375 9.6875 17.375 C9.6875 14.405 9.6875 11.435 9.6875 8.375 C3.4175 8.375 -2.8525 8.375 -9.3125 8.375 Z " fill="#414751" transform="translate(280.3125,264.625)"/>
<path d="M0 0 C33.66 0 67.32 0 102 0 C102.495 2.97 102.495 2.97 103 6 C99.94967992 8.03354672 99.36372978 8.25036063 95.93896484 8.25396729 C95.11458923 8.25960693 94.29021362 8.26524658 93.44085693 8.27105713 C92.53998352 8.26700867 91.63911011 8.26296021 90.7109375 8.25878906 C89.28373383 8.26404602 89.28373383 8.26404602 87.82769775 8.26940918 C84.67672469 8.27822513 81.52597542 8.27237777 78.375 8.265625 C76.18928992 8.26697169 74.00358014 8.26891225 71.81787109 8.27142334 C67.23467154 8.27437442 62.65154988 8.27007743 58.06835938 8.26074219 C52.18677571 8.24934771 46.30537457 8.25590726 40.42379761 8.26788712 C35.9097353 8.27510611 31.39571643 8.27281759 26.88165283 8.26763153 C24.71266661 8.26629515 22.54367648 8.26794235 20.37469482 8.27259064 C17.34604409 8.27765647 14.31769101 8.2699447 11.2890625 8.25878906 C9.93775238 8.26486176 9.93775238 8.26486176 8.55914307 8.27105713 C7.73476746 8.26541748 6.91039185 8.25977783 6.06103516 8.25396729 C4.98699936 8.25283621 4.98699936 8.25283621 3.89126587 8.25168228 C2 8 2 8 -1 6 C-0.67 4.02 -0.34 2.04 0 0 Z " fill="#444A54" transform="translate(205,374)"/>
<path d="M0 0 C4.65518914 2.61420137 8.05330118 5.93001005 9.59375 11.11328125 C10.37907412 17.31463379 10.35287913 22.89900536 6.59375 28.11328125 C2.00927049 32.70859877 -1.50179254 35.22945409 -8.15625 35.42578125 C-14.06126286 35.348423 -17.63709752 33.86804853 -21.91015625 29.6171875 C-26.12263138 24.80464469 -26.77483878 20.92368139 -26.67578125 14.74609375 C-26.1593296 9.7013342 -24.38480614 6.06805667 -20.78125 2.5078125 C-14.69574504 -2.01828181 -7.07280837 -2.60637581 0 0 Z M-17.40625 11.11328125 C-18.98080739 14.26239604 -18.75424118 16.63336941 -18.40625 20.11328125 C-16.63344439 23.09000709 -14.55016985 25.54132132 -11.40625 27.11328125 C-8.44229618 27.51745677 -6.31720074 27.67710296 -3.71484375 26.06640625 C-1.52174322 24.26964919 0.3147062 22.67136884 1.59375 20.11328125 C1.98822548 15.93184114 2.04410186 13.80382077 -0.28125 10.23828125 C-3.20663857 7.31289268 -3.97965563 7.148248 -8.21875 6.80078125 C-12.41112895 6.83889379 -14.44871863 8.06612772 -17.40625 11.11328125 Z " fill="#414751" transform="translate(135.40625,362.88671875)"/>
<path d="M0 0 C4.65518914 2.61420137 8.05330118 5.93001005 9.59375 11.11328125 C10.37907412 17.31463379 10.35287913 22.89900536 6.59375 28.11328125 C2.23963044 32.47769424 -1.24583038 35.21231139 -7.59375 35.42578125 C-13.31133794 35.34210923 -17.81598761 33.57499463 -21.98046875 29.6171875 C-26.14500669 24.83214534 -26.77391328 20.8659639 -26.67578125 14.74609375 C-26.1593296 9.7013342 -24.38480614 6.06805667 -20.78125 2.5078125 C-14.69574504 -2.01828181 -7.07280837 -2.60637581 0 0 Z M-17.40625 12.11328125 C-18.85772903 15.0162393 -18.77864025 16.88589904 -18.40625 20.11328125 C-16.59314858 23.04265779 -14.53329101 25.54976074 -11.40625 27.11328125 C-6.77070612 27.52532959 -4.10208902 26.98782271 -0.40625 24.11328125 C2.15945589 20.69234006 2.03083054 17.26554641 1.59375 13.11328125 C-0.20187405 10.35999104 -1.45879922 8.58700664 -4.40625 7.11328125 C-10.78914065 6.48545594 -13.24192974 6.81323729 -17.40625 12.11328125 Z " fill="#414751" transform="translate(444.40625,362.88671875)"/>
<path d="M0 0 C4.34171887 2.3940319 7.02866791 5.34490145 8.96875 9.90625 C10.44448559 15.24302966 10.23911794 20.16632857 8.52734375 25.40234375 C5.41427943 29.82088666 1.76811379 33.42625374 -3.41015625 35.15234375 C-9.37491919 35.68619517 -14.3676122 35.70504524 -19.41015625 32.15234375 C-24.17450038 27.41042006 -26.53345148 23.8286391 -26.78515625 16.96484375 C-26.715927 11.14958634 -25.35472968 7.42898586 -21.41015625 3.15234375 C-15.24775024 -1.87819177 -7.54068686 -2.65207301 0 0 Z M-17.41015625 11.15234375 C-18.94230513 14.21664151 -18.63954173 16.76890795 -18.41015625 20.15234375 C-17.14017306 23.00980592 -16.12635595 24.63371638 -13.59765625 26.46484375 C-10.58775633 27.4108123 -8.55817589 27.5930665 -5.41015625 27.15234375 C-2.48531758 25.32686439 0.0241358 23.28375964 1.58984375 20.15234375 C1.98431923 15.97090364 2.04019561 13.84288327 -0.28515625 10.27734375 C-3.21054482 7.35195518 -3.98356188 7.1873105 -8.22265625 6.83984375 C-12.4150352 6.87795629 -14.45262488 8.10519022 -17.41015625 11.15234375 Z " fill="#424751" transform="translate(393.41015625,362.84765625)"/>
<path d="M0 0 C5.1610006 4.78336641 8.6395556 8.76286208 8.9375 16.0625 C8.85592544 21.65851448 7.32112224 25.25057511 3.5625 29.375 C-0.45692283 33.037933 -4.10835613 34.67815872 -9.5625 34.875 C-14.72789419 34.56697191 -18.38029385 33.46608955 -22.09765625 29.6875 C-26.93339223 24.20014002 -27.85701816 20.87534913 -27.77734375 13.4921875 C-27.09254048 7.21088854 -24.14977431 3.77277495 -19.375 -0.125 C-13.33973411 -3.08969202 -5.96222779 -2.81850768 0 0 Z M-18.4375 10.375 C-20.04597182 13.59194364 -20.05059149 16.89637222 -19.4375 20.375 C-16.51561368 23.98891202 -14.32124526 26.11812565 -9.6875 26.75 C-5.1621142 26.2278401 -3.6703897 24.53270622 -0.4375 21.375 C0.97250664 18.55498673 0.80798451 16.50492745 0.5625 13.375 C-1.10512322 9.88093231 -2.17756022 8.54829319 -5.4375 6.375 C-11.30938456 5.80675311 -14.14700255 5.95448747 -18.4375 10.375 Z " fill="#414751" transform="translate(343.4375,363.625)"/>
<path d="M0 0 C4.56871846 2.61069626 8.08214502 5.96386907 9.578125 11.125 C10.29946408 16.71537789 10.3850351 21.41807479 7.953125 26.5625 C0.44877311 34.65930072 0.44877311 34.65930072 -5.40234375 35.36328125 C-11.28358224 35.56105741 -15.56757304 34.52631362 -20.421875 31.125 C-25.40186351 25.88290683 -26.83880548 21.6948221 -26.671875 14.58984375 C-26.06616496 8.61792132 -22.79533123 4.96510791 -18.421875 1.125 C-13.05139781 -2.19514317 -5.84236142 -2.11078864 0 0 Z M-17.421875 12.125 C-18.87335403 15.02795805 -18.79426525 16.89761779 -18.421875 20.125 C-16.60877358 23.05437654 -14.54891601 25.56147949 -11.421875 27.125 C-6.76778599 27.5386968 -4.16948024 26.93570393 -0.421875 24.125 C2.03477697 20.44002204 2.27898991 17.40528214 1.578125 13.125 C-0.21551411 10.3149654 -1.44068435 8.61559532 -4.421875 7.125 C-10.80476565 6.49717469 -13.25755474 6.82495604 -17.421875 12.125 Z " fill="#424852" transform="translate(186.421875,362.875)"/>
<path d="M0 0 C4.34079375 2.39352179 7.03497592 5.34395111 8.96484375 9.91015625 C10.49348103 15.3941425 10.6201932 20.83265573 7.96484375 25.96484375 C4.78626511 30.23083088 1.75719866 33.42989211 -3.41015625 35.15234375 C-6.97265625 35.33984375 -6.97265625 35.33984375 -10.41015625 35.15234375 C-12.41015625 33.15234375 -12.41015625 33.15234375 -12.59765625 30.77734375 C-10.88802308 26.99815465 -8.30243995 26.59554837 -4.578125 25.109375 C-1.84903903 23.90464335 -0.62077242 22.89640708 0.58984375 20.15234375 C1.18102316 15.52143833 0.36230213 12.88449927 -2.41015625 9.15234375 C-5.63953992 7.53765191 -8.91872378 7.57155097 -12.41015625 8.15234375 C-15.55674291 10.04883926 -15.55674291 10.04883926 -17.41015625 13.15234375 C-17.81306857 16.8457067 -17.47210848 19.82399692 -16.78515625 23.46484375 C-16.66140625 24.35171875 -16.53765625 25.23859375 -16.41015625 26.15234375 C-18.41015625 28.15234375 -18.41015625 28.15234375 -21.03515625 28.27734375 C-21.81890625 28.23609375 -22.60265625 28.19484375 -23.41015625 28.15234375 C-26.95641815 22.68518999 -27.35096189 17.46918159 -26.41015625 11.15234375 C-24.54565517 6.17205419 -21.43721964 2.15665082 -16.55859375 -0.21875 C-11.10760428 -1.81440328 -5.37413916 -1.89009432 0 0 Z " fill="#414751" transform="translate(84.41015625,362.84765625)"/>
<path d="M0 0 C1.2684375 0.12375 1.2684375 0.12375 2.5625 0.25 C4.87471756 3.71832634 4.81519388 5.0517075 4.82128906 9.14257812 C4.82759338 10.35393433 4.83389771 11.56529053 4.84039307 12.81335449 C4.8363446 14.12276001 4.83229614 15.43216553 4.828125 16.78125 C4.82947234 18.13741119 4.83141345 19.49357191 4.83392334 20.84973145 C4.83687138 23.69104616 4.83258735 26.53223507 4.82324219 29.37353516 C4.81184771 33.01539372 4.81840891 36.65695749 4.83038712 40.29880524 C4.83761443 43.09891989 4.8353138 45.89896466 4.83013153 48.69908142 C4.82814866 50.69493806 4.83422224 52.69079742 4.84039307 54.68664551 C4.83408875 55.89800171 4.82778442 57.10935791 4.82128906 58.35742188 C4.81890228 59.95934387 4.81890228 59.95934387 4.81646729 61.59362793 C4.5625 64.25 4.5625 64.25 2.5625 67.25 C0 67.5 0 67.5 -2.4375 67.25 C-4.25165883 65.43584117 -3.56520573 62.62554299 -3.56689453 60.18554688 C-3.57004669 58.88750122 -3.57319885 57.58945557 -3.57644653 56.2520752 C-3.57465675 54.82429979 -3.5726058 53.39652469 -3.5703125 51.96875 C-3.57098558 50.51525862 -3.57195564 49.06176736 -3.57321167 47.60827637 C-3.57468846 44.55833873 -3.5725347 41.50843034 -3.56787109 38.45849609 C-3.5621738 34.54069441 -3.56545291 30.62296122 -3.57144356 26.70516205 C-3.57504969 23.70269246 -3.57391035 20.70023923 -3.57131577 17.69776917 C-3.57064664 16.25281262 -3.57147442 14.80785461 -3.57379532 13.36289978 C-3.57632265 11.34675117 -3.57179052 9.33059738 -3.56689453 7.31445312 C-3.56609894 6.16497192 -3.56530334 5.01549072 -3.56448364 3.83117676 C-3.39773386 0.44167995 -3.35442372 0.34404346 0 0 Z " fill="#414851" transform="translate(280.4375,190.75)"/>
<path d="M0 0 C3.41109237 0.53260916 5.0226017 1.73045279 7.2265625 4.34765625 C8.2979333 7.70461809 8.42320778 9.64301066 7.4765625 13.03515625 C5.42418509 16.83205447 5.42418509 16.83205447 3.2265625 18.34765625 C-0.70764008 19.3676347 -2.86049992 19.77369379 -6.5859375 18.03515625 C-10.61996028 14.92319582 -10.61996028 14.92319582 -11.5234375 11.53515625 C-11.84648253 7.41633214 -11.05782401 4.93968025 -8.46875 1.73046875 C-5.77013288 -0.47070742 -3.36257415 -0.12595962 0 0 Z " fill="#F76B83" transform="translate(386.7734375,245.65234375)"/>
<path d="M0 0 C3.13584923 2.038302 3.81271512 3.37125791 4.875 6.9375 C5.04131472 11.01221071 4.07446195 13.41658239 1.8125 16.75 C-1.06725451 18.73603759 -3.54637478 18.88090948 -7 19 C-9.92346557 17.63571607 -11.72750909 16.27249091 -14 14 C-15.15637647 9.66358825 -15.23509439 6.93802345 -13 3 C-9.5784511 -0.96899672 -4.86738828 -0.79631904 0 0 Z " fill="#F76A83" transform="translate(132,246)"/>
</svg>
